<?xml version="1.0" standalone="no"?>
<!DOCTYPE svg PUBLIC "-//W3C//DTD SVG 20010904//EN"
 "http://www.w3.org/TR/2001/REC-SVG-20010904/DTD/svg10.dtd">
<svg version="1.0" xmlns="http://www.w3.org/2000/svg"
 width="495.000000pt" height="495.000000pt" viewBox="0 0 495.000000 495.000000"
 preserveAspectRatio="xMidYMid meet">
<metadata>
Created by potrace 1.14, written by Peter Selinger 2001-2017
</metadata>
<g transform="translate(0.000000,495.000000) scale(0.100000,-0.100000)"
fill="#000000" stroke="none">
<path d="M0 2480 l0 -950 2475 0 2475 0 0 950 0 950 -2475 0 -2475 0 0 -950z
m1408 484 c45 -63 72 -111 68 -120 -3 -8 -38 -60 -77 -114 l-71 -100 -74 0
c-41 0 -74 2 -74 5 0 3 20 33 45 68 l46 62 -381 3 c-420 3 -424 2 -456 -59
-20 -40 -12 -89 23 -123 l26 -26 263 0 c182 0 264 -3 264 -11 0 -6 -24 -44
-52 -85 l-53 -74 -228 0 c-244 0 -265 4 -332 54 -77 59 -113 198 -81 310 13
44 29 70 65 106 79 78 89 80 547 80 l393 0 -45 65 -46 65 79 0 78 -1 73 -105z
m2207 -449 c130 -280 241 -518 247 -528 8 -17 3 -18 -88 -15 l-96 3 -57 130
-57 130 -210 2 -209 3 -60 -135 -60 -135 -94 0 c-70 0 -92 3 -88 13 3 6 103
221 222 477 120 256 233 499 252 540 34 74 35 75 48 50 7 -14 120 -254 250
-535z m-1241 519 c170 -42 320 -179 383 -351 63 -174 25 -394 -90 -529 l-35
-40 110 -120 110 -119 -103 -3 -104 -3 -67 73 -68 73 -32 -14 c-195 -79 -346
-79 -509 0 -90 44 -179 122 -230 201 -132 206 -110 480 53 662 146 164 357
225 582 170z m2006 4 c64 -19 121 -59 151 -106 16 -25 29 -49 29 -52 0 -3 -31
-21 -69 -40 l-70 -33 -27 33 c-70 82 -204 80 -260 -5 -12 -18 -15 -38 -11 -71
7 -66 47 -102 201 -181 207 -106 266 -177 266 -320 0 -92 -23 -154 -80 -216
-75 -82 -127 -102 -270 -102 -106 0 -119 2 -172 28 -68 33 -130 100 -152 162
-17 50 -20 46 66 87 l58 27 16 -32 c28 -55 66 -87 122 -103 122 -36 232 28
232 136 0 74 -43 115 -210 201 -187 95 -257 170 -267 289 -20 222 202 370 447
298z m-2968 -511 c97 -47 138 -122 138 -247 0 -123 -38 -194 -132 -246 l-53
-29 -437 -3 c-241 -2 -438 -5 -438 -8 0 -3 18 -31 41 -62 l40 -57 -67 -3 c-37
-2 -72 -1 -79 2 -22 8 -157 207 -151 222 3 8 37 60 76 114 l71 100 74 0 c41 0
75 -2 75 -5 0 -3 -20 -33 -45 -68 l-46 -62 393 -3 c216 -1 407 0 425 3 79 14
109 115 54 177 l-29 33 -156 3 c-86 2 -156 6 -156 9 0 2 26 41 58 85 l57 80
116 -4 c101 -3 123 -7 171 -31z"/>
<path d="M3341 2690 c-7 -23 -39 -100 -71 -171 l-58 -129 143 0 144 0 -56 123
c-31 67 -63 144 -72 171 l-17 49 -13 -43z"/>
<path d="M2113 2876 c-157 -51 -262 -186 -271 -349 -9 -147 43 -262 156 -346
71 -54 145 -75 245 -69 79 5 141 23 135 39 -2 5 -43 51 -91 104 l-88 95 109 0
110 0 46 -51 c54 -60 60 -58 103 30 26 51 28 66 28 171 0 110 -1 118 -32 175
-38 73 -110 144 -183 181 -45 22 -71 28 -140 31 -53 2 -101 -2 -127 -11z"/>
</g>
</svg>
